<svg xmlns="http://www.w3.org/2000/svg" viewBox="0 0 480 360" preserveAspectRatio="xMidYMid slice"><defs><linearGradient id="sky" x1="0" y1="0" x2="0" y2="1"><stop offset="0" stop-color="hsl(289 60% 22% / 1)"/><stop offset="0.55" stop-color="hsl(49 85% 55% / 1)"/><stop offset="1" stop-color="hsl(69 95% 70% / 1)"/></linearGradient><linearGradient id="car" x1="0" y1="0" x2="0" y2="1"><stop offset="0" stop-color="hsl(173 85% 60% / 1)"/><stop offset="1" stop-color="hsl(173 80% 35% / 1)"/></linearGradient><linearGradient id="shade" x1="0" y1="0" x2="0" y2="1"><stop offset="0.55" stop-color="rgb(0 0 0 / 0)"/><stop offset="1" stop-color="rgb(0 0 0 / .35)"/></linearGradient></defs><rect width="480" height="360" fill="url(#sky)"/><circle cx="325.46881787478924" cy="150" r="46" fill="hsl(79 100% 75% / 1)" opacity=".9"/><path d="M0 205 L90 170 L160 190 L250 160 L340 185 L420 165 L480 180 L480 210 L0 210Z" fill="hsl(289 40% 20% / 1)"/><rect y="200" width="480" height="160" fill="hsl(259 20% 14% / 1)"/><path d="M200 200 L280 200 L470 360 L10 360Z" fill="hsl(259 12% 24% / 1)"/><path d="M200 200 L206 200 L60 360 L20 360Z M274 200 L280 200 L460 360 L420 360Z" fill="#fff" opacity=".7"/><rect x="238.5" y="206" width="3" height="6" fill="#fff" opacity=".85"/><rect x="237.33333333333334" y="210.44444444444446" width="5.333333333333333" height="9.666666666666666" fill="#fff" opacity=".85"/><rect x="236.16666666666666" y="223.77777777777777" width="7.666666666666666" height="13.333333333333332" fill="#fff" opacity=".85"/><rect x="235" y="246" width="10" height="17" fill="#fff" opacity=".85"/><rect x="233.83333333333334" y="277.1111111111111" width="12.333333333333332" height="20.666666666666664" fill="#fff" opacity=".85"/><rect x="232.66666666666666" y="317.11111111111114" width="14.666666666666668" height="24.333333333333336" fill="#fff" opacity=".85"/><g transform="translate(195.1385676395148 262)"><path d="M10 48 Q14 18 46 14 L92 6 Q118 4 128 22 L140 48 Z" fill="url(#car)"/><path d="M48 16 L88 9 Q104 8 112 22 L52 24Z" fill="#cfeafe" opacity=".85"/><rect x="0" y="40" width="150" height="22" rx="10" fill="url(#car)"/><rect x="6" y="44" width="16" height="7" rx="3" fill="#ffe08a"/><rect x="128" y="44" width="16" height="7" rx="3" fill="#ff5d5d"/><circle cx="34" cy="64" r="15" fill="#111"/><circle cx="34" cy="64" r="6" fill="#999"/><circle cx="118" cy="64" r="15" fill="#111"/><circle cx="118" cy="64" r="6" fill="#999"/></g><rect x="2.0305001735687256" y="320.4824451729655" width="90.3924134070985" height="3" rx="1.5" fill="#fff" opacity=".35"/><rect x="42.84393754787743" y="253.05225203046575" width="84.84154160134494" height="3" rx="1.5" fill="#fff" opacity=".35"/><rect x="84.08898225054145" y="315.55098284734413" width="62.96326040988788" height="3" rx="1.5" fill="#fff" opacity=".35"/><rect x="75.9413802344352" y="255.7429874734953" width="81.87278388999403" height="3" rx="1.5" fill="#fff" opacity=".35"/><rect x="78.25936504639685" y="272.7719567483291" width="70.06302110152319" height="3" rx="1.5" fill="#fff" opacity=".35"/><rect width="480" height="360" fill="url(#shade)"/></svg>